<?xml version="1.0" encoding="utf-8"?>
<!-- Generator: Adobe Illustrator 15.0.0, SVG Export Plug-In . SVG Version: 6.00 Build 0)  -->
<!DOCTYPE svg PUBLIC "-//W3C//DTD SVG 1.1//EN" "http://www.w3.org/Graphics/SVG/1.1/DTD/svg11.dtd">
<svg version="1.1" id="Layer_1" xmlns="http://www.w3.org/2000/svg" xmlns:xlink="http://www.w3.org/1999/xlink" x="0px" y="0px"
	 width="804px" height="288px" viewBox="0 0 804 288" enable-background="new 0 0 804 288" xml:space="preserve">
<rect x="494.85" y="9.861" fill="#F1627B" width="299.15" height="269.625"/>
<g>
	<path fill="#414042" d="M116.045,195.816c0,4.674,2.876,7.73,8.987,7.73h9.527v5.571H88.183v-5.571h11.145
		c4.854,0,7.55-3.416,7.55-7.73v-50.153H37.849v50.153c0,6.833,5.752,7.73,8.809,7.73h8.988v5.571H10.706v-5.571h10.067
		c4.314,0,8.088-2.696,8.088-7.73V92.454c0-7.011-4.314-8.989-8.269-8.989h-9.706v-5.573h44.759v5.573h-8.988
		c-5.213,0-8.809,2.52-8.809,8.989v47.636h69.028V91.556c0-3.237-1.438-8.091-8.268-8.091H88.183v-5.573h46.377v5.573h-9.346
		c-6.472,0-9.168,3.235-9.168,8.091V195.816z"/>
	<path fill="#414042" d="M155.762,164.179v4.134c0,19.956,13.841,38.65,31.999,38.65c13.841,0,21.57-9.349,29.84-20.675l4.675,3.237
		c-14.201,18.157-21.753,23.01-36.312,23.01c-27.684,0-39.37-24.449-39.37-44.223c0-28.223,18.694-46.377,37.571-46.377
		c19.772,0,36.131,16.897,36.131,42.243H155.762z M210.95,158.605c-0.72-10.606-3.237-18.516-8.089-23.548
		c-4.675-5.033-10.785-7.55-18.695-7.55c-13.664,0-25.347,12.763-28.043,31.098H210.95z"/>
	<path fill="#414042" d="M285.721,203.369c-7.907,6.111-17.255,9.345-28.221,9.345c-8.091,0-22.11-4.132-22.11-21.57
		c0-7.189,2.877-13.123,9.168-17.975c8.268-6.294,23.548-10.788,46.198-13.844v-11.863c0-12.045-11.326-19.776-21.75-19.776
		c-12.943,0-19.055,8.271-19.055,12.045v2.156c0.358,1.978,1.078,7.191-5.214,7.191c-4.493,0-5.571-3.416-5.571-5.573
		c0-11.145,12.404-21.391,29.84-21.391c19.055,0,30.919,12.942,30.919,25.347v41.706c0,6.648,0,17.975,3.775,17.975
		c1.617,0,3.774-3.416,6.111-9.887l5.033,2.696c-3.595,11.505-8.447,12.762-13.122,12.762c-9.526,0-10.246-8.809-10.787-14.921
		L285.721,203.369z M290.755,165.078c-17.975,3.056-30.74,7.191-38.288,12.402c-5.393,3.415-7.91,8.092-7.91,13.663
		c0,9.707,8.628,15.999,16.537,15.999c11.324,0,27.863-8.09,29.661-21.212V165.078z"/>
	<path fill="#414042" d="M341.981,94.611c0-1.799-0.179-3.056-1.078-3.775c-0.899-0.898-5.214-1.257-12.583-1.257v-5.574
		c6.471,0,14.201-2.518,22.83-7.37v119.003c0,4.135,0.899,7.909,6.292,7.909h11.862v5.571h-45.299v-5.571h10.606
		c7.19,0,7.37-4.673,7.37-7.909V94.611z"/>
	<path fill="#414042" d="M403.814,187.009c0,10.784,0.9,17.796,10.965,17.796c4.673,0,10.785-3.954,17.977-12.043l3.956,3.774
		c-8.81,9.35-13.665,13.844-24.45,13.844c-14.559,0-17.616-12.404-17.616-23.371v-55.547h-16.356v-5.573
		c16.718,0,20.492-11.143,20.492-38.107h5.033v38.107h24.986v5.573h-24.986V187.009z"/>
	<path fill="#414042" d="M455.762,94.611c0-4.674-5.394-5.215-13.485-5.033v-5.574c6.474,0,14.022-2.518,22.651-7.37v63.276
		c1.798-2.517,3.773-4.854,6.471-6.832c6.832-6.11,15.281-8.988,25.526-8.988c15.1,0,23.009,8.63,23.009,22.11v50.693l0.899,5.035
		c0.361,1.077,1.618,1.617,3.416,1.617h11.505v5.571h-40.266v-5.571h8.806c5.754,0,6.474-3.236,6.474-6.652v-50.693
		c0-6.83-4.136-16.537-17.259-16.537c-9.707,0-25.526,7.192-28.581,21.572v45.658c0,2.517,0,6.652,4.853,6.652h8.45v5.571h-36.133
		v-5.571h8.629c3.055,0,5.035-1.439,5.035-6.652V94.611z"/>
	<path fill="#414042" d="M535.543,117.669h-7.373l-21.766-33.177h21.238L535.543,117.669z"/>
</g>
<g>
	<path fill="#FFFFFF" d="M621.201,183.09c0,4.065,0.018,7.71,0.053,10.926c0.031,3.22,0.084,6.147,0.151,8.791
		c0.066,2.169,0.846,3.489,2.337,3.964l10.572,3.454l0.302,5.083c-7.52-0.202-16.838-0.304-27.945-0.304
		c-11.86,0-22.427,0.102-31.709,0.304l-0.51-5.083l13.618-3.76c1.692-0.474,2.608-1.524,2.745-3.149
		c0.067-2.71,0.116-5.743,0.151-9.097c0.035-3.353,0.053-7.063,0.053-11.129v-80.999c0-3.386-0.018-6.47-0.053-9.247
		c-0.035-2.781-0.084-5.319-0.151-7.624c-0.07-1.761-0.881-2.878-2.438-3.354l-13.62-3.963l-0.305-5.182
		c9.486,0.271,19.207,0.407,29.168,0.407c2.1,0,4.707-0.053,7.825-0.152c3.117-0.104,6.912-0.22,11.381-0.356
		c4.066-0.135,7.472-0.237,10.217-0.306c2.742-0.066,4.895-0.102,6.453-0.102c17.409,0,30.469,2.914,39.176,8.742
		c8.706,5.828,13.06,14.327,13.06,25.509c0,10.097-2.657,18.242-7.977,24.442c-5.321,6.198-13.13,10.96-23.427,14.278
		c5.691,8.403,10.08,15.212,13.163,20.429c3.081,5.217,6.182,10.349,9.3,15.394c3.113,5.052,5.943,9.503,8.485,13.365
		c2.541,3.862,4.929,6.912,7.165,9.149c1.219,1.014,2.387,1.895,3.506,2.64c1.117,0.748,2.287,1.391,3.505,1.931
		c1.223,0.545,2.523,1.001,3.915,1.373c1.386,0.373,2.927,0.73,4.623,1.067l0.407,5.181c-6.643,0.952-14.229,1.427-22.768,1.427
		c-6.775,0-11.519-0.442-14.226-1.323c-2.714-0.879-5.118-2.132-7.218-3.76c-3.117-2.438-5.979-5.621-8.587-9.554
		c-2.609-3.929-5.372-8.366-8.282-13.313c-2.914-4.943-5.912-10.195-8.994-15.753c-3.086-5.555-6.319-11.042-9.707-16.465
		c-1.016-1.557-1.847-2.846-2.489-3.861c-0.646-1.017-1.289-1.778-1.931-2.286c-0.646-0.509-1.321-0.881-2.032-1.12
		c-0.71-0.235-1.613-0.388-2.693-0.457l-4.27-0.102V183.09z M621.201,140.304c3.592,0.204,6.843,0.306,9.757,0.306
		c9.618,0,16.668-2.42,21.138-7.266c4.473-4.845,6.709-12.416,6.709-22.714c0-9.96-2.151-17.227-6.453-21.8
		c-4.304-4.574-10.995-6.862-20.07-6.862c-1.563,0-3.236,0.069-5.031,0.204c-1.797,0.138-3.812,0.341-6.049,0.611V140.304z"/>
</g>
<g>
	<path fill="#939598" d="M282.95,267.103c-1.905,0-3.379-0.528-4.424-1.586s-1.566-2.569-1.566-4.536v-1.54
		c0-2.036,0.502-3.611,1.507-4.727c1.005-1.114,2.42-1.672,4.246-1.672c1.72,0,3.052,0.635,3.996,1.902
		c0.943,1.269,1.416,3.039,1.416,5.313v0.896h-9.216v-2.159h6.662c-0.079-1.106-0.367-1.971-0.862-2.594
		c-0.496-0.623-1.161-0.935-1.995-0.935c-1.009,0-1.795,0.333-2.356,1s-0.843,1.611-0.843,2.831v1.737
		c0,1.133,0.298,2.002,0.896,2.607c0.597,0.605,1.444,0.908,2.541,0.908c1.149,0,2.167-0.417,3.054-1.251l1.764,1.765
		c-0.676,0.649-1.435,1.151-2.278,1.507C284.648,266.925,283.801,267.103,282.95,267.103z"/>
	<path fill="#939598" d="M292.073,266.905v-19.143h2.686v19.143H292.073z M293.745,258.756v-2.554h10.625v2.554H293.745z
		 M302.947,266.905v-19.143h2.686v19.143H302.947z"/>
	<path fill="#939598" d="M315.836,267.103c-1.905,0-3.379-0.528-4.424-1.586s-1.566-2.569-1.566-4.536v-1.54
		c0-2.036,0.502-3.611,1.507-4.727c1.005-1.114,2.42-1.672,4.246-1.672c1.72,0,3.052,0.635,3.996,1.902
		c0.943,1.269,1.416,3.039,1.416,5.313v0.896h-9.216v-2.159h6.662c-0.079-1.106-0.367-1.971-0.862-2.594
		c-0.496-0.623-1.161-0.935-1.995-0.935c-1.009,0-1.795,0.333-2.356,1s-0.843,1.611-0.843,2.831v1.737
		c0,1.133,0.298,2.002,0.896,2.607c0.597,0.605,1.444,0.908,2.541,0.908c1.149,0,2.167-0.417,3.054-1.251l1.764,1.765
		c-0.676,0.649-1.435,1.151-2.278,1.507C317.535,266.925,316.688,267.103,315.836,267.103z"/>
	<path fill="#939598" d="M329.068,267.103c-1.677,0-2.934-0.347-3.772-1.04c-0.838-0.693-1.257-1.755-1.257-3.186
		c0-1.352,0.382-2.365,1.146-3.041c0.763-0.676,1.917-1.014,3.462-1.014h3.884l0.184,2.158h-4.055c-0.693,0-1.216,0.156-1.567,0.468
		s-0.526,0.788-0.526,1.429c0,0.702,0.232,1.218,0.698,1.547c0.465,0.329,1.163,0.493,2.093,0.493c1.018,0,1.781-0.109,2.291-0.329
		c0.509-0.219,0.764-0.562,0.764-1.026l0.276,1.922c-0.237,0.369-0.531,0.672-0.882,0.908c-0.351,0.237-0.755,0.415-1.211,0.533
		C330.138,267.044,329.629,267.103,329.068,267.103z M332.412,266.905v-8.663c0-0.895-0.239-1.591-0.717-2.086
		c-0.479-0.496-1.157-0.744-2.034-0.744c-1.141,0-2.137,0.315-2.989,0.948l-1.961-1.344c0.518-0.623,1.2-1.107,2.047-1.454
		c0.847-0.347,1.788-0.521,2.824-0.521c1.711,0,3.037,0.443,3.976,1.33c0.939,0.887,1.409,2.137,1.409,3.752v8.781H332.412z"/>
	<path fill="#939598" d="M341.732,247.763v15.549c0,0.324,0.073,0.579,0.217,0.764c0.145,0.184,0.349,0.276,0.612,0.276h1.264v2.554
		h-1.58c-1.009,0-1.795-0.316-2.356-0.948c-0.562-0.632-0.843-1.522-0.843-2.672v-15.522H341.732z"/>
	<path fill="#939598" d="M345.801,255.662v-2.423h6.161v2.423H345.801z M350.409,266.905c-1.124,0-1.938-0.312-2.442-0.935
		s-0.757-1.519-0.757-2.686v-14.021h2.686v14.048c0,0.324,0.066,0.579,0.198,0.764c0.131,0.184,0.325,0.276,0.579,0.276h1.29v2.554
		H350.409z"/>
	<path fill="#939598" d="M355.648,266.905v-19.143h2.686v19.143H355.648z M363.942,266.905v-8.32c0-0.966-0.25-1.712-0.75-2.238
		c-0.5-0.526-1.203-0.79-2.106-0.79c-0.878,0-1.556,0.229-2.034,0.685c-0.479,0.457-0.718,1.102-0.718,1.936l-0.276-2.633
		c0.421-0.808,0.972-1.433,1.652-1.876s1.433-0.665,2.258-0.665c1.483,0,2.631,0.485,3.443,1.454
		c0.812,0.971,1.218,2.342,1.218,4.114v8.334H363.942z"/>
	<path fill="#939598" d="M375.317,272.461v-19.222h2.686v19.222H375.317z M381.439,267.103c-0.852,0-1.593-0.204-2.225-0.612
		s-1.097-0.984-1.396-1.73l0.184-2.857c0,0.588,0.105,1.089,0.316,1.501c0.211,0.413,0.516,0.729,0.915,0.948
		c0.399,0.219,0.884,0.329,1.455,0.329c0.886,0,1.573-0.271,2.06-0.81c0.487-0.54,0.731-1.302,0.731-2.284v-2.963
		c0-1-0.244-1.777-0.731-2.33c-0.487-0.553-1.174-0.829-2.06-0.829c-0.571,0-1.056,0.105-1.455,0.315
		c-0.399,0.211-0.704,0.521-0.915,0.929c-0.21,0.408-0.316,0.897-0.316,1.468l-0.276-2.633c0.413-0.799,0.952-1.416,1.62-1.85
		c0.667-0.435,1.409-0.652,2.225-0.652c1.466,0,2.598,0.485,3.396,1.455c0.799,0.97,1.198,2.341,1.198,4.114v2.976
		c0,1.755-0.413,3.113-1.237,4.074C384.103,266.622,382.939,267.103,381.439,267.103z"/>
	<path fill="#939598" d="M392.669,247.763v15.549c0,0.324,0.073,0.579,0.217,0.764c0.145,0.184,0.349,0.276,0.612,0.276h1.264v2.554
		h-1.58c-1.009,0-1.795-0.316-2.356-0.948c-0.562-0.632-0.843-1.522-0.843-2.672v-15.522H392.669z"/>
	<path fill="#939598" d="M402.161,267.103c-1.677,0-2.934-0.347-3.772-1.04c-0.838-0.693-1.257-1.755-1.257-3.186
		c0-1.352,0.382-2.365,1.146-3.041s1.917-1.014,3.462-1.014h3.884l0.185,2.158h-4.055c-0.693,0-1.216,0.156-1.566,0.468
		c-0.352,0.312-0.527,0.788-0.527,1.429c0,0.702,0.232,1.218,0.698,1.547c0.465,0.329,1.163,0.493,2.093,0.493
		c1.019,0,1.782-0.109,2.291-0.329c0.509-0.219,0.764-0.562,0.764-1.026l0.276,1.922c-0.237,0.369-0.531,0.672-0.882,0.908
		c-0.352,0.237-0.755,0.415-1.211,0.533C403.231,267.044,402.723,267.103,402.161,267.103z M405.505,266.905v-8.663
		c0-0.895-0.239-1.591-0.718-2.086c-0.479-0.496-1.156-0.744-2.034-0.744c-1.141,0-2.137,0.315-2.988,0.948l-1.962-1.344
		c0.519-0.623,1.2-1.107,2.048-1.454c0.847-0.347,1.788-0.521,2.824-0.521c1.711,0,3.036,0.443,3.976,1.33
		c0.938,0.887,1.408,2.137,1.408,3.752v8.781H405.505z"/>
	<path fill="#939598" d="M411.087,255.662v-2.423h6.162v2.423H411.087z M415.695,266.905c-1.124,0-1.938-0.312-2.442-0.935
		s-0.757-1.519-0.757-2.686v-14.021h2.686v14.048c0,0.324,0.066,0.579,0.197,0.764c0.132,0.184,0.325,0.276,0.58,0.276h1.29v2.554
		H415.695z"/>
	<path fill="#939598" d="M419.881,255.53v-2.291h6.833v2.291H419.881z M421.329,266.905v-15.521c0-1.203,0.255-2.106,0.764-2.713
		c0.509-0.605,1.304-0.908,2.383-0.908h2.238v2.555h-1.922c-0.272,0-0.47,0.103-0.593,0.309c-0.123,0.207-0.184,0.45-0.184,0.731
		v15.548H421.329z"/>
	<path fill="#939598" d="M434.324,267.103c-1.791,0-3.178-0.52-4.161-1.56c-0.982-1.04-1.474-2.504-1.474-4.391v-2.226
		c0-1.869,0.491-3.317,1.474-4.344c0.983-1.027,2.37-1.541,4.161-1.541c1.79,0,3.177,0.514,4.16,1.541
		c0.982,1.026,1.475,2.475,1.475,4.344v2.265c0,1.879-0.492,3.333-1.475,4.364C437.501,266.587,436.114,267.103,434.324,267.103z
		 M434.311,264.549c0.939,0,1.668-0.292,2.186-0.876c0.518-0.583,0.776-1.41,0.776-2.481v-2.265c0-1.062-0.259-1.882-0.776-2.462
		c-0.518-0.579-1.246-0.868-2.186-0.868s-1.663,0.289-2.172,0.868c-0.51,0.58-0.764,1.4-0.764,2.462v2.265
		c0,1.071,0.254,1.898,0.764,2.481C432.647,264.257,433.371,264.549,434.311,264.549z"/>
	<path fill="#939598" d="M443.776,266.905v-13.666h2.686v13.666H443.776z M451.294,256.479c-0.483-0.588-1.198-0.882-2.146-0.882
		c-0.86,0-1.522,0.234-1.987,0.704c-0.466,0.47-0.698,1.121-0.698,1.955l-0.276-2.633c0.412-0.808,0.954-1.439,1.626-1.896
		c0.672-0.456,1.411-0.685,2.219-0.685c1.246,0,2.251,0.355,3.015,1.066L451.294,256.479z"/>
	<path fill="#939598" d="M455.283,266.905v-13.666h2.686v13.666H455.283z M463.445,266.905v-8.281c0-0.956-0.236-1.7-0.711-2.231
		c-0.474-0.53-1.145-0.796-2.014-0.796c-0.878,0-1.556,0.232-2.034,0.697c-0.479,0.466-0.718,1.119-0.718,1.962l-0.276-2.633
		c0.421-0.825,0.972-1.462,1.652-1.909c0.68-0.448,1.433-0.672,2.258-0.672c1.439,0,2.554,0.485,3.344,1.455
		s1.186,2.341,1.186,4.114v8.294H463.445z M471.608,266.905v-8.281c0-0.956-0.25-1.7-0.751-2.231c-0.5-0.53-1.202-0.796-2.106-0.796
		c-0.834,0-1.479,0.254-1.935,0.764c-0.457,0.509-0.685,1.229-0.685,2.158l-0.54-2.633c0.43-0.903,0.998-1.604,1.705-2.1
		c0.706-0.496,1.485-0.744,2.337-0.744c1.482,0,2.63,0.485,3.442,1.455c0.812,0.97,1.218,2.341,1.218,4.114v8.294H471.608z"/>
</g>
</svg>
