<?xml version="1.0" encoding="utf-8"?>
<!-- Generator: Adobe Illustrator 15.0.0, SVG Export Plug-In . SVG Version: 6.00 Build 0)  -->
<!DOCTYPE svg PUBLIC "-//W3C//DTD SVG 1.1//EN" "http://www.w3.org/Graphics/SVG/1.1/DTD/svg11.dtd">
<svg version="1.1" id="Layer_1" xmlns="http://www.w3.org/2000/svg" xmlns:xlink="http://www.w3.org/1999/xlink" x="0px" y="0px"
	 width="166.426px" height="150px" viewBox="0 0 166.426 150" enable-background="new 0 0 166.426 150" xml:space="preserve">
<rect fill="#F1627B" width="166.426" height="150"/>
<g>
	<path fill="#FFFFFF" d="M70.293,96.373c0,2.262,0.01,4.289,0.029,6.078c0.018,1.791,0.047,3.42,0.084,4.891
		c0.037,1.207,0.471,1.941,1.301,2.205l5.881,1.922l0.168,2.828c-4.184-0.113-9.367-0.17-15.547-0.17
		c-6.598,0-12.477,0.057-17.641,0.17l-0.283-2.828l7.576-2.092c0.941-0.264,1.451-0.848,1.527-1.752
		c0.037-1.508,0.064-3.195,0.084-5.061s0.029-3.93,0.029-6.191V51.311c0-1.884-0.01-3.6-0.029-5.145
		c-0.02-1.547-0.047-2.959-0.084-4.241c-0.039-0.979-0.49-1.602-1.357-1.866l-7.576-2.205l-0.17-2.883
		c5.277,0.15,10.686,0.227,16.227,0.227c1.168,0,2.619-0.029,4.354-0.085c1.734-0.058,3.846-0.122,6.332-0.198
		c2.262-0.075,4.156-0.132,5.684-0.17c1.525-0.037,2.723-0.057,3.59-0.057c9.686,0,16.951,1.621,21.795,4.863
		s7.266,7.971,7.266,14.191c0,5.617-1.479,10.148-4.438,13.598c-2.961,3.448-7.305,6.098-13.033,7.943
		c3.166,4.675,5.607,8.463,7.322,11.365s3.439,5.757,5.174,8.564c1.732,2.811,3.307,5.287,4.721,7.436s2.742,3.846,3.986,5.09
		c0.678,0.564,1.328,1.055,1.951,1.469c0.621,0.416,1.271,0.773,1.949,1.074c0.68,0.303,1.404,0.557,2.178,0.764
		c0.771,0.207,1.629,0.406,2.572,0.594l0.227,2.883c-3.695,0.529-7.916,0.793-12.666,0.793c-3.77,0-6.408-0.246-7.914-0.736
		c-1.51-0.488-2.848-1.186-4.016-2.092c-1.734-1.355-3.326-3.127-4.777-5.314c-1.451-2.186-2.988-4.654-4.607-7.406
		c-1.621-2.75-3.289-5.672-5.004-8.764c-1.717-3.09-3.516-6.143-5.4-9.16c-0.564-0.866-1.027-1.583-1.385-2.148
		c-0.359-0.565-0.717-0.989-1.074-1.271c-0.359-0.283-0.734-0.49-1.131-0.623c-0.395-0.131-0.896-0.216-1.498-0.254l-2.375-0.057
		V96.373z M70.293,72.569c1.998,0.113,3.807,0.17,5.428,0.17c5.352,0,9.273-1.347,11.76-4.042c2.488-2.695,3.732-6.907,3.732-12.637
		c0-5.541-1.197-9.584-3.59-12.128c-2.395-2.545-6.117-3.817-11.166-3.817c-0.869,0-1.801,0.038-2.799,0.113
		c-1,0.076-2.121,0.189-3.365,0.34V72.569z"/>
</g>
</svg>
